<svg xmlns="http://www.w3.org/2000/svg" width="112" height="112" fill="none"><g filter="url(#filter0_d_951_12)"><rect width="100" height="100" x="4" y="4" fill="#fff" rx="50"/><rect width="98" height="98" x="5" y="5" stroke="#026FD3" stroke-opacity=".1" stroke-width="2" rx="49"/><circle cx="54" cy="54" r="49" stroke="#026FD3" stroke-dasharray="75,350" stroke-linecap="round" stroke-width="2"><animateTransform fill="freeze" attributeName="transform" attributeType="XML" calcMode="spline" dur="2s" from="0 54 54" keySplines="0.4 0 0.61 1;0.4 0 0.61 1" repeatCount="indefinite" to="-360 54 54" type="rotate"/><animate fill="freeze" attributeName="stroke-dashoffset" calcMode="spline" dur="2s" keySplines="0.4 0 0.61 1;0.4 0 0.61 1" repeatCount="indefinite" values="0;55;0"/></circle><svg width="26" height="30" x="41" y="39" overflow="visible" viewBox="0 0 26 30"><style>@keyframes logo-loader-contour{0%{stroke-dashoffset:100;opacity:1}66%,80%,to{stroke-dashoffset:0;opacity:1}}@keyframes logo-loader-bar-left-outer{0%,14%{transform:translateY(31px)}72%,to{transform:translateY(0)}}@keyframes logo-loader-bar-left-mid{0%,24%{transform:translateY(31px)}72%,to{transform:translateY(0)}}@keyframes logo-loader-bar-center{0%,34%{transform:translateY(31px)}72%,to{transform:translateY(0)}}@keyframes logo-loader-bar-right-mid{0%,44%{transform:translateY(31px)}72%,to{transform:translateY(0)}}@keyframes logo-loader-bar-right-outer{0%,54%{transform:translateY(31px)}72%,to{transform:translateY(0)}}@keyframes logo-loader-cap-left{0%,14%{opacity:0;transform:translateY(4px)}36%,to{opacity:1;transform:translateY(0)}}@keyframes logo-loader-cap-right{0%,54%{opacity:0;transform:translateY(4px)}72%,to{opacity:1;transform:translateY(0)}}@keyframes logo-loader-arrow{0%,58%{opacity:0;transform:scaleX(.08)}72%,to{opacity:1;transform:scaleX(1)}}@keyframes logo-loader-fade{0%,96%,to{opacity:0}4%,78%{opacity:1}}.logo-loader__bar,.logo-loader__cap{fill:#fff;transform-box:view-box;animation-duration:4.8s;animation-timing-function:cubic-bezier(.42,0,.2,1);animation-iteration-count:infinite}</style><defs><path id="logo-path" d="M26 22.512v-15l-6.12-3.54v2.529l3.927 2.287v12.448l-1.735 1.011V12.135H19.88v11.388l-1.784 1.012V9.294h-2.192V25.81l-1.783 1.035V3.178l3.975 2.312V2.937L13.012 0l-5.06 2.937v2.528l3.976-2.287v23.668l-1.783-1.035V9.294H7.952v15.265l-1.783-1.036V12.135H3.976V22.27l-1.783-1.035V8.788l.12-.072L6.17 6.5V3.949L0 7.512v15L13.012 30z"/><mask id="reveal-mask" width="28" height="32" x="-1" y="-1" maskUnits="userSpaceOnUse"><path fill="#000" d="M-1-1h28v32H-1z"/><path d="M6.17 5.22 2.31 7.45l-1.21.7v13.67l11.91 6.88 11.89-6.88V8.15l-1.2-.7-3.82-2.23" pathLength="100" style="fill:none;stroke:#fff;stroke-linecap:square;stroke-linejoin:miter;stroke-width:2.08;stroke-dasharray:100;stroke-dashoffset:100;animation:logo-loader-contour 4.8s cubic-bezier(.42,0,.2,1) infinite"/><path d="M3.6 11.7h2.95v12H3.6z" class="logo-loader__bar" style="animation-name:logo-loader-bar-left-outer"/><path d="M7.58 8.85h2.95v17.4H7.58z" class="logo-loader__bar" style="animation-name:logo-loader-bar-left-mid"/><path d="M11.55 2.7h2.95v24.8h-2.95z" class="logo-loader__bar" style="animation-name:logo-loader-bar-center"/><path d="M15.53 8.85h2.95v17.4h-2.95z" class="logo-loader__bar" style="animation-name:logo-loader-bar-right-mid"/><path d="M19.5 11.7h2.95v12H19.5z" class="logo-loader__bar" style="animation-name:logo-loader-bar-right-outer"/><path d="M3.95 8.95 6.5 7.48V4.75L3.95 6.23Z" class="logo-loader__cap" style="animation-name:logo-loader-cap-left"/><path d="m19.5 4.75 2.62 1.53v2.7L19.5 7.45Z" class="logo-loader__cap" style="animation-name:logo-loader-cap-right"/><path d="m7.7 2.72 5.31-3.07 5.34 3.1v3.1L14.12 3.4v23.85H11.9V3.4L7.7 5.82Z" style="fill:#fff;transform-box:view-box;animation-duration:4.8s;animation-timing-function:cubic-bezier(.42,0,.2,1);animation-iteration-count:infinite;animation-name:logo-loader-arrow;transform-origin:13px 3px"/></mask></defs><use href="#logo-path" style="fill:#a0002a;opacity:.05"/><use href="#logo-path" style="fill:#a0002a;opacity:1;mask:url(#reveal-mask);animation:logo-loader-fade 4.8s ease-in-out infinite"/>
<g transform="translate(256 256) scale(0.55)">
<path fill="#2196F3" d="M0,-90 C-20,-60 -25,-25 0,0 C25,-25 20,-60 0,-90"/>
<path fill="#42A5F5" d="M-55,-40 C-70,-10 -55,20 -20,20 C-30,-10 -20,-35 -55,-40"/>
<path fill="#42A5F5" d="M55,-40 C70,-10 55,20 20,20 C30,-10 20,-35 55,-40"/>
<path fill="#64B5F6" d="M-35,10 C-45,35 -20,60 0,45 C20,60 45,35 35,10 C20,20 -20,20 -35,10"/>
<animateTransform attributeName="transform" type="scale" values="0.55;0.62;0.55" dur="1.8s" repeatCount="indefinite"/>
</g>

</svg></g><defs><filter id="filter0_d_951_12" width="112" height="112" x="0" y="0" color-interpolation-filters="sRGB" filterUnits="userSpaceOnUse"><feFlood flood-opacity="0" result="BackgroundImageFix"/><feColorMatrix in="SourceAlpha" result="hardAlpha" values="0 0 0 0 0 0 0 0 0 0 0 0 0 0 0 0 0 0 127 0"/><feOffset dx="2" dy="2"/><feGaussianBlur stdDeviation="3"/><feColorMatrix values="0 0 0 0 0.207843 0 0 0 0 0.227451 0 0 0 0 0.301961 0 0 0 0.03 0"/><feBlend in2="BackgroundImageFix" result="effect1_dropShadow_951_12"/><feBlend in="SourceGraphic" in2="effect1_dropShadow_951_12" result="shape"/></filter></defs>
<g transform="translate(256 256) scale(0.55)">
<path fill="#2196F3" d="M0,-90 C-20,-60 -25,-25 0,0 C25,-25 20,-60 0,-90"/>
<path fill="#42A5F5" d="M-55,-40 C-70,-10 -55,20 -20,20 C-30,-10 -20,-35 -55,-40"/>
<path fill="#42A5F5" d="M55,-40 C70,-10 55,20 20,20 C30,-10 20,-35 55,-40"/>
<path fill="#64B5F6" d="M-35,10 C-45,35 -20,60 0,45 C20,60 45,35 35,10 C20,20 -20,20 -35,10"/>
<animateTransform attributeName="transform" type="scale" values="0.55;0.62;0.55" dur="1.8s" repeatCount="indefinite"/>
</g>

</svg>